<svg xmlns="http://www.w3.org/2000/svg" width="1440" height="480" viewBox="0 0 1440 480" fill="none">
    <defs><pattern id="dots" width="32" height="32" patternUnits="userSpaceOnUse"><circle cx="2" cy="2" r="1" fill="#ffffff" opacity=".12"/></pattern></defs>
    <path fill="url(#dots)" d="M0 0h1440v480H0z"/>
    <ellipse cx="1110" cy="230" rx="390" ry="310" fill="#131f42"/>
    <g stroke="#fff2df" stroke-opacity=".13"><circle cx="1110" cy="240" r="170"/><circle cx="1110" cy="240" r="224"/><circle cx="1110" cy="240" r="300"/><path d="M0 430C400 210 540 570 890 340S1190 40 1440 140M0 452C400 232 540 592 890 362S1190 62 1440 162"/></g>
    <g transform="rotate(-8 1110 240)"><rect x="1000" y="130" width="220" height="220" rx="48" fill="#302d47" fill-opacity=".35" stroke="#fff2df" stroke-opacity=".35"/><g transform="translate(1042 172)" opacity="0.9"><svg xmlns="http://www.w3.org/2000/svg" width="136" height="136" viewBox="0 0 24 24" fill="none" stroke="#fff2df" stroke-width="1" stroke-linecap="round" stroke-linejoin="round" class="lucide lucide-lock-keyhole" aria-hidden="true"><circle cx="12" cy="16" r="1"></circle><rect x="3" y="10" width="18" height="12" rx="2"></rect><path d="M7 10V7a5 5 0 0 1 10 0v3"></path></svg></g></g>
    <rect x="880" y="74" width="88" height="88" rx="24" fill="#302d47" fill-opacity=".4" stroke="#fff2df" stroke-opacity=".18"/><g transform="translate(904 98)" opacity="0.75"><svg xmlns="http://www.w3.org/2000/svg" width="40" height="40" viewBox="0 0 24 24" fill="none" stroke="#fff2df" stroke-width="1" stroke-linecap="round" stroke-linejoin="round" class="lucide lucide-fingerprint-pattern" aria-hidden="true"><path d="M12 10a2 2 0 0 0-2 2c0 1.02-.1 2.51-.26 4"></path><path d="M14 13.12c0 2.38 0 6.38-1 8.88"></path><path d="M17.29 21.02c.12-.6.43-2.3.5-3.02"></path><path d="M2 12a10 10 0 0 1 18-6"></path><path d="M2 16h.01"></path><path d="M21.8 16c.2-2 .131-5.354 0-6"></path><path d="M5 19.5C5.5 18 6 15 6 12a6 6 0 0 1 .34-2"></path><path d="M8.65 22c.21-.66.45-1.32.57-2"></path><path d="M9 6.8a6 6 0 0 1 9 5.2v2"></path></svg></g>
    <rect x="1270" y="326" width="88" height="88" rx="24" fill="#302d47" fill-opacity=".4" stroke="#fff2df" stroke-opacity=".18"/><g transform="translate(1294 350)" opacity="0.75"><svg xmlns="http://www.w3.org/2000/svg" width="40" height="40" viewBox="0 0 24 24" fill="none" stroke="#fff2df" stroke-width="1" stroke-linecap="round" stroke-linejoin="round" class="lucide lucide-shield-check" aria-hidden="true"><path d="M20 13c0 5-3.5 7.5-7.66 8.95a1 1 0 0 1-.67-.01C7.5 20.5 4 18 4 13V6a1 1 0 0 1 1-1c2 0 4.5-1.2 6.24-2.72a1.17 1.17 0 0 1 1.52 0C14.51 3.81 17 5 19 5a1 1 0 0 1 1 1z"></path><path d="m9 12 2 2 4-4"></path></svg></g>
    <g fill="#fff2df"><circle cx="1270" cy="98" r="5" opacity=".8"/><circle cx="923" cy="351" r="4" opacity=".6"/><circle cx="1360" cy="220" r="3" opacity=".5"/></g>
  </svg>
